<mxfile host="app.diagrams.net" agent="Mozilla/5.0 (Windows NT 10.0; Win64; x64) AppleWebKit/537.36 (KHTML, like Gecko) Chrome/140.0.0.0 Safari/537.36" version="28.2.4">
  <diagram name="Page-1" id="lkkkKNeB20ReOcCQ33Qr">
    <mxGraphModel dx="681" dy="462" grid="1" gridSize="10" guides="1" tooltips="1" connect="1" arrows="1" fold="1" page="1" pageScale="1" pageWidth="827" pageHeight="1169" math="0" shadow="0">
      <root>
        <mxCell id="0" />
        <mxCell id="1" parent="0" />
        <mxCell id="rqKX9Pg6hDf6n43ykVHD-1" value="&lt;font style=&quot;font-size: 14px;&quot;&gt;part&lt;/font&gt;" style="rounded=0;whiteSpace=wrap;html=1;fillColor=#dae8fc;strokeColor=#6c8ebf;" vertex="1" parent="1">
          <mxGeometry x="684" y="180" width="100" height="50" as="geometry" />
        </mxCell>
        <mxCell id="rqKX9Pg6hDf6n43ykVHD-2" value="" style="shape=curlyBracket;whiteSpace=wrap;html=1;rounded=1;labelPosition=left;verticalLabelPosition=middle;align=right;verticalAlign=middle;" vertex="1" parent="1">
          <mxGeometry x="650" y="210" width="20" height="130" as="geometry" />
        </mxCell>
        <mxCell id="rqKX9Pg6hDf6n43ykVHD-3" value="&lt;font style=&quot;font-size: 14px;&quot;&gt;parts&lt;/font&gt;" style="rounded=0;whiteSpace=wrap;html=1;fillColor=#d5e8d4;strokeColor=#82b366;" vertex="1" parent="1">
          <mxGeometry x="540" y="250" width="100" height="50" as="geometry" />
        </mxCell>
        <mxCell id="rqKX9Pg6hDf6n43ykVHD-4" value="" style="shape=curlyBracket;whiteSpace=wrap;html=1;rounded=1;labelPosition=left;verticalLabelPosition=middle;align=right;verticalAlign=middle;" vertex="1" parent="1">
          <mxGeometry x="500" y="280" width="20" height="240" as="geometry" />
        </mxCell>
        <mxCell id="rqKX9Pg6hDf6n43ykVHD-5" value="&lt;font style=&quot;&quot;&gt;&lt;span style=&quot;font-size: 14px;&quot;&gt;DataEntity&lt;/span&gt;&lt;br&gt;&lt;span style=&quot;font-size: 14px;&quot;&gt;Times&lt;/span&gt;&lt;/font&gt;" style="rounded=0;whiteSpace=wrap;html=1;fillColor=#ffe6cc;strokeColor=#d79b00;" vertex="1" parent="1">
          <mxGeometry x="390" y="375" width="100" height="50" as="geometry" />
        </mxCell>
        <mxCell id="rqKX9Pg6hDf6n43ykVHD-6" value="" style="shape=curlyBracket;whiteSpace=wrap;html=1;rounded=1;labelPosition=left;verticalLabelPosition=middle;align=right;verticalAlign=middle;" vertex="1" parent="1">
          <mxGeometry x="250" y="400" width="20" height="240" as="geometry" />
        </mxCell>
        <mxCell id="rqKX9Pg6hDf6n43ykVHD-7" value="key" style="rhombus;whiteSpace=wrap;html=1;" vertex="1" parent="1">
          <mxGeometry x="300" y="360" width="80" height="80" as="geometry" />
        </mxCell>
        <mxCell id="rqKX9Pg6hDf6n43ykVHD-8" value="&lt;div&gt;DataModel&lt;/div&gt;files" style="rounded=0;whiteSpace=wrap;html=1;" vertex="1" parent="1">
          <mxGeometry x="100" y="490" width="120" height="60" as="geometry" />
        </mxCell>
      </root>
    </mxGraphModel>
  </diagram>
</mxfile>
